PathFileType	4	(X/Y/Z)	/Users/itak/Documents/Research/Walk-IL/dataset/trc/00328_00011.trc
DataRate	CameraRate	NumFrames	NumMarkers	Units	OrigDataRate	OrigDataStartFrame	OrigNumFrames
100.000000	100.000000	4	54	mm	100.000000	280	561
Frame#	Time	RPSI			LPSI			L3			STRN			T10			C7			CLAV			RBAK			LBAK			LSHO			LUPA			LAEL			LAOL			LWTS			LWPS			LFRA			LIFD			LHPS			LHTS			RSHO			RUPA			RAEL			RAOL			RWTS			RWPS			RFRA			RIFD			RHTS			RHPS			RBHD			LFHD			RFHD			LBHD			LHIP			RHIP			RASI			LASI			LKNE			LTHI			LANK			LTIP			LTOE			LMT1			LMT5			LHEE			RKNE			RTHI			RANK			RTIP			RTOE			RMT1			RMT5			RHEE			*53			
		X1	Y1	Z1	X2	Y2	Z2	X3	Y3	Z3	X4	Y4	Z4	X5	Y5	Z5	X6	Y6	Z6	X7	Y7	Z7	X8	Y8	Z8	X9	Y9	Z9	X10	Y10	Z10	X11	Y11	Z11	X12	Y12	Z12	X13	Y13	Z13	X14	Y14	Z14	X15	Y15	Z15	X16	Y16	Z16	X17	Y17	Z17	X18	Y18	Z18	X19	Y19	Z19	X20	Y20	Z20	X21	Y21	Z21	X22	Y22	Z22	X23	Y23	Z23	X24	Y24	Z24	X25	Y25	Z25	X26	Y26	Z26	X27	Y27	Z27	X28	Y28	Z28	X29	Y29	Z29	X30	Y30	Z30	X31	Y31	Z31	X32	Y32	Z32	X33	Y33	Z33	X34	Y34	Z34	X35	Y35	Z35	X36	Y36	Z36	X37	Y37	Z37	X38	Y38	Z38	X39	Y39	Z39	X40	Y40	Z40	X41	Y41	Z41	X42	Y42	Z42	X43	Y43	Z43	X44	Y44	Z44	X45	Y45	Z45	X46	Y46	Z46	X47	Y47	Z47	X48	Y48	Z48	X49	Y49	Z49	X50	Y50	Z50	X51	Y51	Z51	X52	Y52	Z52	X53	Y53	Z53	X54	Y54	Z54	

281	2.8	225.9820098876953	968.5319213867188	206.6261901855469	223.6957702636719	971.4028930664062	76.69648742675781	214.5288543701172	1039.401245117188	142.0352783203125	456.8359375	1212.863891601562	128.5438079833984	215.8790283203125	1158.042114257812	138.2145080566406	260.7019653320312	1404.80859375	121.6152420043945	414.7356872558594	1337.731689453125	124.1787109375	207.7260437011719	1269.893920898438	193.0018768310547	249.4933319091797	1368.359252929688	20.77194023132324	335.689453125	1381.495239257812	-36.03351593017578	307.7380065917969	1266.723266601562	-106.6962509155273	303.876708984375	1064.018920898438	-131.2104644775391	241.8575286865234	1054.692260742188	-73.15992736816406	367.4990844726562	807.9735107421875	-109.5194244384766	324.4346008300781	807.5446166992188	-163.6315460205078	305.1817626953125	960.048828125	-145.8725433349609	345.435302734375	646.6831665039062	-117.3086929321289	310.9384155273438	738.2080688476562	-163.5354766845703	366.3431701660156	730.056640625	-132.6431427001953	324.9603576660156	1387.261474609375	281.5482177734375	313.6069946289062	1325.412353515625	349.3136291503906	301.843017578125	1058.855346679688	392.0613098144531	253.85546875	1050.634155273438	309.51513671875	401.6462707519531	827.3327026367188	348.1861877441406	369.0370483398438	814.1613159179688	416.8215637207031	324.2589416503906	990.2296752929688	402.1578979492188	411.4717712402344	655.068603515625	357.2713928222656	429.1581726074219	726.3084106445312	363.654296875	382.5430603027344	729.8224487304688	415.2533874511719	300.1818542480469	1599.923583984375	205.4640197753906	463.2042236328125	1623.491333007812	77.3519287109375	458.4611511230469	1624.562744140625	178.3466949462891	279.7179565429688	1591.77587890625	61.79248428344727	308.9109802246094	914.8662719726562	-29.3187141418457	310.4671020507812	918.7847900390625	313.2584533691406	413.0988159179688	950.0552978515625	266.9843444824219	428.9164733886719	943.4920043945312	27.33484077453613	415.4291687011719	455.4414367675781	16.02499389648438	393.4142761230469	596.7589111328125	-9.023370742797852	333.2092895507812	39.60374069213867	71.57637786865234	376.2755737304688	237.8674621582031	34.58675765991211	535.214599609375	42.31756973266602	143.8652648925781	464.2847900390625	34.57759857177734	180.712890625	460.5926818847656	42.04314041137695	65.84166717529297	293.79345703125	42.37533187866211	136.8502655029297	447.3182983398438	473.640869140625	313.8555603027344	423.3100891113281	724.1185913085938	322.769287109375	147.6902160644531	167.7163391113281	308.1954650878906	386.6339111328125	368.6654663085938	310.5142211914062	301.2272033691406	63.68600845336914	249.7682189941406	250.6475372314453	88.4166259765625	209.0808258056641	217.7050476074219	94.9637451171875	322.6198120117188	107.5002212524414	203.42529296875	264.1365966796875	nan	nan	nan	
282	2.81	220.1168975830078	968.8671264648438	207.0981750488281	217.5420532226562	971.5134887695312	77.24509429931641	208.5697326660156	1039.01806640625	142.8451995849609	449.8724365234375	1213.170288085938	128.154296875	209.1752624511719	1157.736694335938	139.0300598144531	253.2095489501953	1404.618530273438	121.9501113891602	407.4710388183594	1337.933471679688	123.8070068359375	201.0360565185547	1269.6015625	193.8284912109375	241.6306457519531	1368.082763671875	21.24646377563477	327.4975280761719	1381.345581054688	-36.02907562255859	299.0474853515625	1266.601196289062	-106.4093704223633	294.4916687011719	1063.900390625	-130.6637268066406	233.1474761962891	1054.722045898438	-72.02913665771484	357.7791137695312	807.7173461914062	-109.6714859008789	314.0116271972656	807.3475341796875	-163.2684631347656	295.4136657714844	959.9369506835938	-145.3197326660156	335.0964660644531	646.294677734375	-116.9421005249023	300.3440551757812	738.0294189453125	-162.9148559570312	356.1556701660156	729.834716796875	-132.6879730224609	318.3558044433594	1387.446899414062	281.57275390625	307.5647888183594	1325.6533203125	349.4906616210938	297.3406677246094	1059.165771484375	392.762451171875	248.5243988037109	1050.66455078125	310.6871032714844	397.21826171875	827.6932373046875	347.9966430664062	365.6795043945312	814.7318725585938	417.0057678222656	320.0135192871094	990.6013793945312	402.6395874023438	407.4424743652344	655.486572265625	357.1908569335938	425.1093444824219	726.7608642578125	363.1839599609375	379.3142700195312	730.3391723632812	415.5040588378906	292.6799011230469	1599.93408203125	205.394775390625	455.5533447265625	1623.572509765625	77.01502990722656	450.9012451171875	1624.626342773438	178.0699768066406	272.0180358886719	1591.749633789062	61.75181579589844	302.2971496582031	914.9845581054688	-29.02873992919922	304.6588439941406	918.6691284179688	313.6943664550781	407.1946105957031	949.6302490234375	267.2491760253906	422.3731384277344	943.5894775390625	27.64068603515625	411.4610900878906	455.8905944824219	15.29298877716064	388.3768310546875	597.10693359375	-9.536526679992676	333.0533142089844	39.15877914428711	71.09004974365234	373.9996032714844	238.2229156494141	33.81986999511719	534.9594116210938	42.92521286010742	143.4823913574219	464.1504516601562	35.61276245117188	180.2533874511719	460.5420532226562	41.87564086914062	65.35444641113281	293.7664794921875	42.23702621459961	136.3936309814453	431.1290588378906	471.1341247558594	314.6608276367188	414.2989807128906	722.3583374023438	322.3247985839844	125.6423645019531	170.3296356201172	306.8882141113281	368.4925842285156	367.0394287109375	310.8705444335938	275.9925842285156	63.15408325195312	246.4201354980469	226.3689575195312	90.04006958007812	206.3947601318359	193.1911926269531	95.0804443359375	320.2164611816406	86.46542358398438	207.8777008056641	263.3059692382812	nan	nan	nan	
283	2.82	214.1763458251953	969.155517578125	207.64453125	211.2826232910156	971.5729370117188	77.86283111572266	202.665771484375	1038.515991210938	143.7733764648438	442.864990234375	1213.392456054688	127.7272491455078	202.4267272949219	1157.342163085938	139.9008331298828	245.6852722167969	1404.348754882812	122.3230819702148	400.1581115722656	1338.034423828125	123.4402465820312	194.3080749511719	1269.223510742188	194.7002410888672	233.6897735595703	1367.708740234375	21.76452255249023	319.2319946289062	1381.109497070312	-35.99902725219727	290.3081665039062	1266.37939453125	-106.0803298950195	285.1612243652344	1063.674438476562	-130.0465087890625	224.5870056152344	1054.619384765625	-70.80606079101562	348.1971435546875	807.3668212890625	-109.6909027099609	303.7514038085938	807.0510864257812	-162.7861785888672	285.7467346191406	959.7152709960938	-144.6780090332031	325.0937194824219	645.9472045898438	-116.5151138305664	289.9527893066406	737.7426147460938	-162.1610565185547	346.1538391113281	729.5140380859375	-132.5811157226562	311.744140625	1387.530151367188	281.6237182617188	301.5221557617188	1325.79296875	349.6871337890625	292.8819274902344	1059.396606445312	393.5131530761719	243.2163543701172	1050.572509765625	311.9286193847656	392.7909851074219	827.9384155273438	347.7283020019531	362.4985961914062	815.2886962890625	417.1567077636719	315.8382873535156	990.88671875	403.1587829589844	403.4532165527344	655.8069458007812	357.1937561035156	421.0604858398438	727.0750732421875	362.6438293457031	376.2456359863281	730.7904663085938	415.779296875	285.1485595703125	1599.845092773438	205.3526153564453	447.8807067871094	1623.559692382812	76.71708679199219	443.3258361816406	1624.598999023438	177.8243103027344	264.3081970214844	1591.633544921875	61.73641967773438	295.5916137695312	915.0267944335938	-28.66707611083984	298.7479248046875	918.5037841796875	314.2060852050781	401.2143859863281	949.1116943359375	267.5592041015625	415.7502746582031	943.6248779296875	27.97179985046387	407.5735473632812	456.3080444335938	14.65780735015869	383.336181640625	597.4014282226562	-9.942424774169922	332.8989562988281	38.73130416870117	70.61259460449219	371.7776794433594	238.5595855712891	33.12030792236328	534.7274169921875	43.60640335083008	143.0823974609375	464.0160217285156	36.61559677124023	179.7917938232422	460.4855651855469	41.71750640869141	64.85932922363281	293.7743835449219	42.10949325561523	135.9710235595703	414.7972412109375	468.7991638183594	315.3428955078125	405.2696228027344	720.6695556640625	321.8834533691406	104.1953125	172.3694458007812	305.3262023925781	350.4526062011719	365.4524230957031	311.1177673339844	251.5688781738281	62.53791427612305	242.6192779541016	202.9603881835938	91.55284118652344	203.3797454833984	169.3986511230469	94.72201538085938	317.3255920410156	66.0833740234375	211.7051544189453	262.2535095214844	nan	nan	nan	
284	2.83	208.1397094726562	969.3882446289062	208.2687683105469	204.8868865966797	971.580078125	78.54737091064453	196.7911682128906	1037.903198242188	144.8213653564453	435.8152465820312	1213.52001953125	127.2640075683594	195.6148071289062	1156.862548828125	140.8204956054688	238.1350555419922	1403.99755859375	122.7285003662109	392.7950134277344	1338.025146484375	123.0815048217773	187.5353088378906	1268.7607421875	195.6105194091797	225.6744842529297	1367.226440429688	22.32165145874023	310.9034423828125	1380.7802734375	-35.94532775878906	281.5250854492188	1266.047973632812	-105.7117538452148	275.8872375488281	1063.333862304688	-129.3674621582031	216.1732330322266	1054.3779296875	-69.49724578857422	338.7527770996094	806.9153442382812	-109.5807952880859	293.6583251953125	806.6463012695312	-162.1866149902344	276.18212890625	959.3745727539062	-143.9561157226562	315.3979797363281	645.6133422851562	-116.0143203735352	279.770263671875	737.3395385742188	-161.2843780517578	336.3287963867188	729.0682983398438	-132.3240966796875	305.1235656738281	1387.505615234375	281.6969299316406	295.478515625	1325.829223632812	349.9009704589844	288.4685668945312	1059.549926757812	394.3083801269531	237.9293365478516	1050.355102539062	313.24755859375	388.3299865722656	828.0625	347.3718872070312	359.4866333007812	815.8322143554688	417.2724609375	311.7438354492188	991.083251953125	403.708984375	399.4469604492188	656.0122680664062	357.3110046386719	416.9900512695312	727.2647705078125	362.0493774414062	373.3323364257812	731.2002563476562	416.1002502441406	277.5956115722656	1599.647583007812	205.3405914306641	440.1866760253906	1623.450561523438	76.45934295654297	435.7353820800781	1624.478271484375	177.6117858886719	256.5895385742188	1591.418701171875	61.75073623657227	288.79296875	915.00048828125	-28.22961235046387	292.7059936523438	918.279052734375	314.7985229492188	395.1340942382812	948.489013671875	267.9295043945312	409.0331115722656	943.59375	28.34164047241211	403.7503051757812	456.7037048339844	14.12255668640137	378.2960510253906	597.6498413085938	-10.24483966827393	332.7467956542969	38.33670043945312	70.146484375	369.60888671875	238.8723297119141	32.49073791503906	534.5313720703125	44.33501815795898	142.6767425537109	463.8781433105469	37.55530166625977	179.3476715087891	460.4161071777344	41.57738494873047	64.36592102050781	293.8085632324219	41.99705505371094	135.5821990966797	398.3784484863281	466.6268005371094	315.8760986328125	396.0823364257812	719.0198364257812	321.4965209960938	83.40625762939453	173.7977905273438	303.5198669433594	332.5558471679688	363.9167785644531	311.2254638671875	228.0981292724609	61.88858032226562	238.5111846923828	180.5036773681641	92.89199066162109	200.0961608886719	146.4386291503906	93.91216278076172	314.0132446289062	46.37585067749023	214.8432922363281	260.9808654785156	nan	nan	nan	
